<svg xmlns="http://www.w3.org/2000/svg" viewBox="0 0 1000 360" role="img" aria-label="Answer pipeline: a question fans out to TF-IDF retrieval and the knowledge graph; their context is fused and sent to the Groq model (or the extractive fallback) to produce a grounded answer with a traceability graph.">
  <defs>
    <linearGradient id="p-accent" x1="0" y1="0" x2="1" y2="0">
      <stop offset="0" stop-color="#2dd4bf"/><stop offset="1" stop-color="#38bdf8"/>
    </linearGradient>
    <radialGradient id="p-glow" cx="50%" cy="50%" r="50%">
      <stop offset="0" stop-color="#2dd4bf" stop-opacity="0.5"/>
      <stop offset="1" stop-color="#2dd4bf" stop-opacity="0"/>
    </radialGradient>
    <pattern id="p-grid" width="26" height="26" patternUnits="userSpaceOnUse">
      <circle cx="1" cy="1" r="1" fill="#94a3b8" fill-opacity="0.07"/>
    </pattern>
    <marker id="p-arrow" markerWidth="9" markerHeight="9" refX="5.5" refY="3" orient="auto">
      <path d="M0,0 L6,3 L0,6 Z" fill="#39d2bf"/>
    </marker>
    <style>
      .box{ fill:#121826; stroke:#26344a; stroke-width:1.4; opacity:0; animation:p-fin .55s ease forwards; }
      .box.alt{ stroke:#3a4a66; }
      .box.dash{ stroke-dasharray:5 5; stroke:#5b6776; }
      @keyframes p-fin{ from{opacity:0;transform:translateY(6px);} to{opacity:1;transform:none;} }
      .ttl{ font-family:ui-sans-serif,system-ui,"Segoe UI",Roboto,sans-serif; fill:#e8eef5; font-weight:700; }
      .lbl{ font-family:ui-sans-serif,system-ui,"Segoe UI",Roboto,sans-serif; fill:#e8eef5; font-weight:600; }
      .sub{ font-family:ui-monospace,Menlo,Consolas,monospace; fill:#8fa1b3; }
      .cap{ font-family:ui-monospace,Menlo,Consolas,monospace; fill:#5b6776; letter-spacing:3px; }
      .flow{ stroke:url(#p-accent); stroke-width:2.4; fill:none; stroke-dasharray:6 8; animation:p-march 1.1s linear infinite; }
      .fb{ stroke:#5b6776; stroke-width:1.6; fill:none; stroke-dasharray:5 6; animation:p-march 1.6s linear infinite; }
      @keyframes p-march{ to{ stroke-dashoffset:-28; } }
      .pulse{ animation:p-pulse 2.4s ease-in-out infinite; transform-origin:center; transform-box:fill-box; }
      @keyframes p-pulse{ 0%,100%{opacity:.22;} 50%{opacity:.5;} }
    </style>
  </defs>

  <rect width="1000" height="360" rx="18" fill="#0b0f16"/>
  <rect width="1000" height="360" rx="18" fill="url(#p-grid)"/>
  <rect x="0.5" y="0.5" width="999" height="359" rx="18" fill="none" stroke="#1c2636"/>

  <text class="ttl" x="40" y="42" font-size="19">How a question is answered</text>
  <text class="cap" x="40" y="63" font-size="11">GRAPHRAG PIPELINE</text>

  <!-- connectors -->
  <path class="flow" d="M170,188 C215,188 215,96 243,96" marker-end="url(#p-arrow)"/>
  <path class="flow" d="M170,188 C215,188 215,266 243,266" marker-end="url(#p-arrow)"/>
  <path class="flow" d="M455,96 C490,96 482,182 498,174" marker-end="url(#p-arrow)"/>
  <path class="flow" d="M455,266 C490,266 482,182 498,192" marker-end="url(#p-arrow)"/>
  <path class="flow" d="M630,183 C660,183 660,134 683,134" marker-end="url(#p-arrow)"/>
  <path class="flow" d="M825,134 C858,134 860,184 833,182" marker-end="url(#p-arrow)"/>
  <path class="flow" d="M825,250 C860,250 862,188 833,188" marker-end="url(#p-arrow)"/>
  <path class="fb" d="M755,160 V224" marker-end="url(#p-arrow)"/>
  <text class="sub" x="765" y="198" font-size="9">on error</text>

  <!-- A question -->
  <g><rect class="box" x="20" y="155" width="150" height="64" rx="12" style="animation-delay:.05s"/>
    <text class="lbl" x="95" y="183" font-size="13.5" text-anchor="middle">Question</text>
    <text class="sub" x="95" y="203" font-size="10" text-anchor="middle">+ patient · top_k</text></g>

  <!-- B1 retrieval -->
  <g><rect class="box" x="245" y="66" width="210" height="60" rx="12" style="animation-delay:.18s"/>
    <text class="lbl" x="350" y="91" font-size="13" text-anchor="middle">TF-IDF retrieval</text>
    <text class="sub" x="350" y="111" font-size="10" text-anchor="middle">ranked evidence chunks</text></g>

  <!-- B2 graph -->
  <g><rect class="box" x="245" y="236" width="210" height="60" rx="12" style="animation-delay:.26s"/>
    <text class="lbl" x="350" y="261" font-size="13" text-anchor="middle">Knowledge graph</text>
    <text class="sub" x="350" y="281" font-size="10" text-anchor="middle">structured graph facts</text></g>

  <!-- C fusion -->
  <rect class="pulse" x="498" y="146" width="132" height="74" rx="16" fill="url(#p-glow)"/>
  <g><rect class="box" x="500" y="150" width="128" height="66" rx="12" style="animation-delay:.4s"/>
    <text class="lbl" x="564" y="180" font-size="13" text-anchor="middle">Context</text>
    <text class="lbl" x="564" y="198" font-size="13" text-anchor="middle">fusion</text></g>

  <!-- D groq -->
  <g><rect class="box alt" x="685" y="106" width="140" height="56" rx="12" style="animation-delay:.52s"/>
    <text class="lbl" x="755" y="130" font-size="13" text-anchor="middle">Groq LLM</text>
    <text class="sub" x="755" y="149" font-size="9.5" text-anchor="middle">llama-3.3-70b</text></g>

  <!-- D2 extractive -->
  <g><rect class="box dash" x="685" y="226" width="140" height="48" rx="12" style="animation-delay:.6s"/>
    <text class="lbl" x="755" y="250" font-size="12.5" text-anchor="middle">Extractive</text>
    <text class="sub" x="755" y="266" font-size="9" text-anchor="middle">deterministic</text></g>

  <!-- E answer -->
  <rect class="pulse" x="833" y="135" width="160" height="96" rx="18" fill="url(#p-glow)"/>
  <g><rect class="box" x="835" y="139" width="156" height="88" rx="12" style="animation-delay:.72s"/>
    <text class="lbl" x="913" y="170" font-size="13" text-anchor="middle">Grounded answer</text>
    <text class="sub" x="913" y="190" font-size="10" text-anchor="middle">+ evidence table</text>
    <text class="sub" x="913" y="206" font-size="10" text-anchor="middle">+ traceability graph</text></g>
</svg>
